<svg width="20" height="20" viewBox="0 0 20 20" fill="none" xmlns="http://www.w3.org/2000/svg">
<path d="M10.0004 4C8.95745 4.00132 7.95759 4.41622 7.22011 5.1537C6.48263 5.89118 6.06773 6.89104 6.06641 7.934H8.06641C8.06641 6.867 8.93441 6 10.0004 6C11.0664 6 11.9344 6.867 11.9344 7.934C11.9344 8.532 11.4534 8.966 10.7184 9.56C10.4783 9.7481 10.2477 9.94801 10.0274 10.159C9.02941 11.156 9.00041 12.215 9.00041 12.333V13H11.0004L10.9994 12.367C11.0004 12.351 11.0324 11.981 11.4404 11.574C11.5904 11.424 11.7794 11.274 11.9754 11.116C12.7544 10.485 13.9334 9.532 13.9334 7.934C13.9326 6.89106 13.518 5.89104 12.7806 5.15347C12.0433 4.41591 11.0434 4.00106 10.0004 4ZM9.00041 14H11.0004V16H9.00041V14Z" fill="white"/>
<path d="M10 0C4.486 0 0 4.486 0 10C0 15.514 4.486 20 10 20C15.514 20 20 15.514 20 10C20 4.486 15.514 0 10 0ZM10 18C5.589 18 2 14.411 2 10C2 5.589 5.589 2 10 2C14.411 2 18 5.589 18 10C18 14.411 14.411 18 10 18Z" fill="white"/>
</svg>
