<svg width="15" height="14" viewBox="0 0 15 14" fill="none" xmlns="http://www.w3.org/2000/svg">
<path d="M7.69554 0C11.5077 0 14.5986 3.13438 14.5986 7C14.5986 10.8656 11.5077 14 7.69554 14C3.88344 14 0.792456 10.8656 0.792456 7C0.792456 3.13438 3.88344 0 7.69554 0ZM7.69554 12.8125C10.8605 12.8125 13.4276 10.2094 13.4276 7C13.4276 3.79063 10.8605 1.1875 7.69554 1.1875C4.5306 1.1875 1.96352 3.79063 1.96352 7C1.96352 10.2094 4.5306 12.8125 7.69554 12.8125Z" fill="#0E2A50"/>
<path d="M8.43457 4.25C8.43457 4.44891 8.35665 4.63968 8.21794 4.78033C8.07924 4.92098 7.89111 5 7.69495 5C7.4988 5 7.31067 4.92098 7.17197 4.78033C7.03326 4.63968 6.95534 4.44891 6.95534 4.25C6.95534 4.05109 7.03326 3.86032 7.17197 3.71967C7.31067 3.57902 7.4988 3.5 7.69495 3.5C7.89111 3.5 8.07924 3.57902 8.21794 3.71967C8.35665 3.86032 8.43457 4.05109 8.43457 4.25ZM7.32515 6H8.06476C8.13256 6 8.18803 6.05625 8.18803 6.125V10.375C8.18803 10.4437 8.13256 10.5 8.06476 10.5H7.32515C7.25735 10.5 7.20188 10.4437 7.20188 10.375V6.125C7.20188 6.05625 7.25735 6 7.32515 6Z" fill="#0E2A50"/>
</svg>
