<svg x="0px" y="0px" viewBox="0 0 188 39" style={{"enable-background":"new 0 0 188 39"}} xmlSpace="preserve">
<path className="fill-current" d="M136.5,9.1c1.5,0,2.4-0.7,3.1-1.6l-0.9-0.5c-0.5,0.7-1.3,1.2-2.2,1.2c-1.7,0-3-1.4-3-3.3c0-1.9,1.3-3.3,3-3.3
c0.9,0,1.8,0.5,2.2,1.2l0.8-0.5c-0.6-0.9-1.6-1.6-3.1-1.6c-2.3,0-4.1,1.7-4.1,4.1S134.2,9.1,136.5,9.1z M108.1,7.9
c0.7,0.7,1.7,1.3,3.1,1.3c2.2,0,3-1.2,3-2.4c0-1.7-1.5-2.1-2.8-2.4l0,0c-1-0.3-1.9-0.5-1.9-1.3c0-0.8,0.7-1.3,1.6-1.3
c0.9,0,1.7,0.3,2.3,1l0.6-0.7c-0.7-0.7-1.6-1.1-2.8-1.1c-1.6,0-2.7,0.9-2.7,2.2c0,1.6,1.4,1.9,2.7,2.3l0,0l0,0c1.1,0.3,2,0.6,2,1.5
c0,0.6-0.5,1.4-1.9,1.4c-1.1,0-2-0.6-2.5-1.1L108.1,7.9z M2.9,9h1V1.9h2.5V1H0.4v0.9h2.5V9z M15.9,9h1V1h-1v3.4h-4.7V1h-1v8h1V5.3
h4.7V9z M26.4,9h-5.2V1h5.2v0.9h-4.2v2.6h4.2v0.9h-4.2v2.8h4.2V9z M35.8,9h5.2V8.1h-4.2V5.4H41V4.5h-4.2V1.9h4.2V1h-5.2V9z M51.7,9
h-1l-4.7-6.5V9h-1V1h1l4.6,6.3V1h1V9z M58,9h1V1.9h2.5V1h-6.1v0.9H58V9z M70.5,9h-5.2V1h5.2v0.9h-4.2v2.6h4.2v0.9h-4.2v2.8h4.2V9z
M79.1,9h1.2l-2.2-3.3c1.1-0.1,2.1-0.9,2.1-2.3c0-1.5-1-2.4-2.5-2.4h-3.2v8h1V5.8H77L79.1,9z M79.1,3.4c0,0.9-0.6,1.5-1.6,1.5h-2.1
V1.9h2.1C78.5,1.9,79.1,2.5,79.1,3.4z M85.1,9h-1V1h3.2c1.6,0,2.5,1.1,2.5,2.4S89,5.8,87.4,5.8h-2.2V9z M87.2,4.9
c0.9,0,1.6-0.6,1.6-1.5s-0.6-1.5-1.6-1.5h-2.1v3H87.2z M98.2,9h1.2l-2.2-3.3c1.1-0.1,2.1-0.9,2.1-2.3c0-1.5-1-2.4-2.5-2.4h-3.2v8h1
V5.8h1.6L98.2,9z M98.3,3.4c0,0.9-0.6,1.5-1.6,1.5h-2.1V1.9h2.1C97.6,1.9,98.3,2.5,98.3,3.4z M104.3,9h-1V1h1V9z M123.2,9H118V1h5.2
v0.9H119v2.6h4.2v0.9H119v2.8h4.2V9z M148.5,9h-5.2V1h5.2v0.9h-4.2v2.6h4.2v0.9h-4.2v2.8h4.2V9z M158.1,9h1V1h-1v6.3L153.5,1h-1v8h1
V2.5L158.1,9z M166.3,9h-1V1.9h-2.5V1h6.1v0.9h-2.5V9z M172.6,9h5.2V8.1h-4.2V5.4h4.2V4.5h-4.2V1.9h4.2V1h-5.2V9z M187.6,9h-1.2
l-2-3.2h-1.6V9h-1V1h3.2c1.5,0,2.5,0.9,2.5,2.4c0,1.4-1,2.2-2.1,2.3L187.6,9z M184.9,4.9c0.9,0,1.6-0.6,1.6-1.5s-0.6-1.5-1.6-1.5
h-2.1v3.1H184.9z M35.4,23.4c0.8,0,1.5-0.7,1.5-1.5s-0.7-1.5-1.5-1.5c-0.8,0-1.5,0.7-1.5,1.5S34.5,23.4,35.4,23.4z M34.1,34.4h2.5
v-9.7h-2.5V34.4z M8.9,34.4h3.3l-3-5.1c1.4-0.3,2.9-1.6,2.9-4c0-2.5-1.7-4.3-4.5-4.3H1.3v13.3h2.8v-4.8h2.1L8.9,34.4z M9.1,25.4
c0,1.1-0.9,1.8-2,1.8h-3v-3.7h3C8.3,23.5,9.1,24.3,9.1,25.4z M12.9,29.6c0,3.1,2.2,5.1,5.2,5.1c1.5,0,3-0.5,4-1.3l-1.1-1.6
c-0.6,0.6-1.7,1-2.6,1c-1.6,0-2.6-1-2.8-2.2h7.2v-0.6c0-3.2-2-5.3-4.8-5.3C14.9,24.5,12.9,26.8,12.9,29.6z M17.9,26.6
c1.7,0,2.3,1.2,2.4,2.1h-4.8C15.6,27.7,16.3,26.6,17.9,26.6z M28,34.7c-1.7,0-3.3-0.6-4.3-1.5l1.1-1.8c0.7,0.7,2.1,1.3,3.3,1.3
c1.1,0,1.6-0.4,1.6-1c0-0.7-0.8-0.9-1.9-1.1l0,0c-1.7-0.3-3.8-0.7-3.8-3c0-1.6,1.4-3,4-3c1.6,0,2.9,0.6,3.9,1.3l-1,1.7
c-0.6-0.6-1.7-1.1-2.9-1.1c-0.9,0-1.5,0.3-1.5,0.9c0,0.6,0.8,0.8,1.8,1c1.7,0.3,3.9,0.8,3.9,3.2C32.2,33.3,30.7,34.7,28,34.7z
M41.7,34.4h-2.5V21.1h2.5V34.4z M45.5,23.4c0.8,0,1.5-0.7,1.5-1.5s-0.7-1.5-1.5-1.5c-0.8,0-1.5,0.7-1.5,1.5S44.6,23.4,45.5,23.4z
M44.2,34.4h2.5v-9.7h-2.5V34.4z M53.8,34.7c-2.9,0-5.2-2-5.2-5.1c0-2.8,2.1-5.1,5-5.1c2.9,0,4.8,2.2,4.8,5.3v0.6h-7.2
c0.2,1.2,1.1,2.2,2.8,2.2c0.9,0,2-0.4,2.6-1l1.1,1.6C56.8,34.2,55.3,34.7,53.8,34.7z M56,28.7c-0.1-0.9-0.7-2.1-2.4-2.1
c-1.6,0-2.3,1.2-2.4,2.1H56z M66.8,34.4h2.5v-6.8c0-1.9-1-3.1-3.1-3.1c-1.6,0-2.8,0.8-3.4,1.5v-1.3h-2.5v9.7h2.5v-6.5
c0.4-0.6,1.2-1.1,2.2-1.1c1.1,0,1.8,0.5,1.8,1.8V34.4z M76.4,34.7c-3,0-5.1-2.1-5.1-5.1c0-3,2.1-5.1,5.1-5.1c2,0,3.2,0.9,3.8,1.7
l-1.7,1.6c-0.5-0.7-1.2-1-2-1c-1.5,0-2.6,1.1-2.6,2.8s1.1,2.8,2.6,2.8c0.9,0,1.6-0.4,2-1l1.7,1.5C79.6,33.8,78.4,34.7,76.4,34.7z
M81.9,35.9l-0.4,2.3c0.3,0.1,1,0.1,1.3,0.1c1.7,0,2.9-0.5,3.7-2.3L91,24.8h-2.7l-2.5,6.7l-2.5-6.7h-2.7l3.9,9.8l-0.4,0.8
c-0.2,0.5-0.7,0.7-1.3,0.7C82.5,36.1,82.1,36,81.9,35.9z M108.7,34.4h-3.5l-4-5.3l-1,1.2v4.1h-2.8V21.1h2.8v6l4.7-6h3.5l-5.3,6.3
L108.7,34.4z M111.2,23.4c0.8,0,1.5-0.7,1.5-1.5s-0.7-1.5-1.5-1.5c-0.8,0-1.5,0.7-1.5,1.5S110.4,23.4,111.2,23.4z M110,34.4h2.5
v-9.7H110V34.4z M120.4,34.1c-0.4,0.3-1.1,0.6-2.1,0.6c-1.8,0-2.7-0.9-2.7-2.6v-5h-1.6v-2.2h1.6v-2.6h2.6v2.6h2V27h-2v4.4
c0,0.6,0.3,1.1,0.9,1.1c0.4,0,0.7-0.1,0.9-0.3L120.4,34.1z"/>
</svg>