<?xml version="1.0" encoding="utf-8"?>
<!-- Generator: Adobe Illustrator 25.0.1, SVG Export Plug-In . SVG Version: 6.00 Build 0)  -->
<svg version="1.1" id="Layer_1" xmlns="http://www.w3.org/2000/svg" xmlns:xlink="http://www.w3.org/1999/xlink" x="0px" y="0px"
	 viewBox="0 0 13 15" style="enable-background:new 0 0 13 15;" xml:space="preserve">
<style type="text/css">
	.st0{fill:#305587;}
</style>
<path class="st0" d="M3.5,7H3v1h0.5V7z M9.5,8H10V7H9.5V8z M3.5,10H3v1h0.5V10z M9.5,11H10v-1H9.5V11z M3.5,4H3v1h0.5V4z M9.5,5H10
	V4H9.5V5z M12.5,3.5H13V3.3l-0.1-0.1L12.5,3.5L12.5,3.5z M9.5,0.5l0.4-0.4L9.7,0H9.5V0.5z M3.5,8h6V7h-6V8z M3.5,11h6v-1h-6V11z
	 M3.5,5h6V4h-6V5z M11.5,14h-10v1h10V14z M1,13.5v-12H0v12H1z M12,3.5v10h1v-10H12z M1.5,1h8V0h-8V1z M9.1,0.9l3,3l0.7-0.7l-3-3
	L9.1,0.9L9.1,0.9z M1.5,14c-0.1,0-0.3-0.1-0.4-0.1C1.1,13.8,1,13.6,1,13.5H0c0,0.4,0.2,0.8,0.4,1.1C0.7,14.8,1.1,15,1.5,15V14z
	 M11.5,15c0.4,0,0.8-0.2,1.1-0.4c0.3-0.3,0.4-0.7,0.4-1.1h-1c0,0.1-0.1,0.3-0.1,0.4c-0.1,0.1-0.2,0.1-0.4,0.1V15z M1,1.5
	c0-0.1,0.1-0.3,0.1-0.4C1.2,1.1,1.4,1,1.5,1V0C1.1,0,0.7,0.2,0.4,0.4C0.2,0.7,0,1.1,0,1.5H1z"/>
</svg>
