<?xml version="1.0" encoding="utf-8"?>
<!-- Generator: Adobe Illustrator 25.0.1, SVG Export Plug-In . SVG Version: 6.00 Build 0)  -->
<svg version="1.1" id="Layer_1" xmlns="http://www.w3.org/2000/svg" xmlns:xlink="http://www.w3.org/1999/xlink" x="0px" y="0px"
	 viewBox="0 0 16 16" style="enable-background:new 0 0 16 16;" xml:space="preserve">
<style type="text/css">
	.st0{fill:#305587;}
</style>
<path class="st0" d="M3.5,7L1.6,8.9c-0.8,0.8-1.2,1.8-1.2,2.9s0.4,2.1,1.2,2.9c0.8,0.8,1.8,1.2,2.9,1.2s2.1-0.4,2.9-1.2l2.5-2.5
	c0.5-0.5,0.8-1,1-1.7c0.2-0.6,0.2-1.3,0.1-1.9c-0.1-0.7-0.4-1.3-0.8-1.8C9.9,6.3,9.4,5.8,8.8,5.6L8,6.4C7.9,6.5,7.8,6.5,7.8,6.6
	C8.2,6.8,8.7,7,9,7.4c0.3,0.3,0.6,0.8,0.7,1.2c0.1,0.5,0.1,1,0,1.4c-0.1,0.5-0.4,0.9-0.7,1.2l-2.5,2.5c-0.5,0.5-1.2,0.8-1.9,0.8
	s-1.4-0.3-1.9-0.8c-0.5-0.5-0.8-1.2-0.8-1.9c0-0.7,0.3-1.4,0.8-1.9l1.1-1.1C3.5,8.2,3.4,7.6,3.5,7L3.5,7z"/>
<path class="st0" d="M4.9,7.6l0.2-0.2C5.4,7,5.8,6.8,6.3,6.6C6.4,6.2,6.7,5.7,7,5.4l0.2-0.2c-0.7,0-1.4,0.1-2,0.4
	C4.9,6.2,4.8,6.9,4.9,7.6L4.9,7.6z"/>
<path class="st0" d="M6.1,4.4c-0.5,0.5-0.8,1-1,1.7C4.8,6.7,4.8,7.4,4.9,8C5,8.7,5.3,9.3,5.7,9.8c0.4,0.5,0.9,0.9,1.5,1.2L8.3,10
	C7.8,9.9,7.4,9.6,7,9.3C6.7,8.9,6.4,8.5,6.3,8.1c-0.1-0.5-0.1-1,0-1.4C6.4,6.2,6.7,5.7,7,5.4l2.5-2.5c0.5-0.5,1.2-0.8,1.9-0.8
	c0.7,0,1.4,0.3,1.9,0.8c0.5,0.5,0.8,1.2,0.8,1.9s-0.3,1.4-0.8,1.9l-1.1,1.1c0.2,0.6,0.2,1.2,0.2,1.8l1.9-1.9
	c0.8-0.8,1.2-1.8,1.2-2.9s-0.4-2.1-1.2-2.9c-0.8-0.8-1.8-1.2-2.9-1.2S9.3,1.1,8.6,1.9L6.1,4.4z"/>
<path class="st0" d="M10.7,11.1c0.3-0.6,0.4-1.3,0.4-2l-0.2,0.2c-0.3,0.3-0.8,0.6-1.2,0.7c-0.1,0.5-0.4,0.9-0.7,1.2l-0.2,0.2
	C9.4,11.5,10.1,11.4,10.7,11.1L10.7,11.1z"/>
</svg>
